# xmcd
#
# Track frame offsets: 
#        183
#        15000
#        31658
#        48508
#        60030
#        74505
#        92063
#        106393
#        118808
#        148908
#        161380
#
# Disc length: 2402 seconds
#
# Revision: 5
# Processed by: cddbd v1.5.2PL0 Copyright (c) Steve Scherf et al.
# Submitted via: ExactAudioCopy v0.99pb5
#
DISCID=8509600b
DTITLE=The Jimi Hendrix Experience - Are You Experienced [W.German Pol
DTITLE=ydor 825 416-2]
DYEAR=1967
DGENRE=Psychedelic Rock
TTITLE0=Foxy Lady
TTITLE1=Manic Depression
TTITLE2=Red House [* mono]
TTITLE3=Can You See Me
TTITLE4=Love Or Confusion
TTITLE5=I Don't Live Today
TTITLE6=May This Be Love
TTITLE7=Fire
TTITLE8=3rd Stone From The Sun
TTITLE9=Remember [* mono]
TTITLE10=Are You Experienced
EXTD=YEAR: 1967
EXTT0=
EXTT1=
EXTT2=
EXTT3=
EXTT4=
EXTT5=
EXTT6=
EXTT7=
EXTT8=
EXTT9=
EXTT10=
PLAYORDER=
